{"title":"Robin Hood 201 DVDrip English Klam","uid":6922633,"size":2522461831,"categoryP":"video","categoryS":"movies","magnet":"?xt=urn:btih:82f8af28cbbbe42467a1f7e1cf9b8df61185120d&amp;dn=Robin+Hood+201+DVDrip+English+Klam&amp;tr=udp%3A%2F%2Ftracker.openbittorrent.com%3A80&amp;tr=udp%3A%2F%2Fopen.demonii.com%3A1337&amp;tr=udp%3A%2F%2Ftracker.coppersurfer.tk%3A6969&amp;tr=udp%3A%2F%2Fexodus.desync.com%3A6969","seeders":1,"leechers":1,"uploader":"Klambake","files":-1,"time":1325329484,"description":"With: Russell Crowe, Cate Blanchett and Mark Strong\n\nHet legendarische verhaal over de ervaren boogschutter Robin Hood, die in dienst treedt bij het leger van koning Richard om tegen de Fransen te vechten. Na de dood van de koning vertrekt Robin naar Nottingham, een stad die lijdt onder de corruptie van een tirannieke schout en torenhoge belastingen. Daar valt hij voor de weduwe Lady Marian, die de identiteit en de motieven van deze kruisridder niet volledig vertrouwt. In de hoop de hand van Lady Marian te winnen en de stedelingen te redden, brengt Robin een bende bij elkaar die uitblinkt in dodelijke vechttrucs en levenslust. Samen vallen ze de rijke bovenklasse aan om het onrecht te herstellen...\n\nIn 13th century England, Robin and his band of marauders confront corruption in a local village and lead an uprising against the crown that will forever alter the balance of world power. \n\n------------------------ Dutch Friends ------------------------\n---------------------------------------------------------------\n- Bezoek ook eens mijn vrienden op: &lt;a href=&quot; http://www.Film-Test.nl&quot; rel=&quot;nofollow&quot; target=&quot;_NEW&quot;&gt; http://www.Film-Test.nl&lt;/a&gt; --\n----- voor mijn Nederlandse Sync. ondertitels ---- en meer ----\n------- http://www.Film-Test.nl ---- voor Films en meer -------\n---------------------------------------------------------------\n\nGeneral:\n\nComplete name                    : Robin Hood\\Robin Hood.avi\nFormat                           : AVI\nFormat/Info                      : Audio Video Interleave\nFile size                        : 2.35 GiB\nDuration                         : 2h 29mn\nOverall bit rate                 : 2 250 Kbps\n\nVideo:\n\nFormat                           : MPEG-4 Visual\nFormat profile                   : Simple@L3\nFormat settings, BVOP            : No\nFormat settings, QPel            : No\nFormat settings, GMC             : No warppoints\nFormat settings, Matrix          : Default (H.263)\nCodec ID                         : XVID\nCodec ID/Hint                    : XviD\nDuration                         : 2h 29mn\nBit rate                         : 1 855 Kbps\nWidth                            : 720 pixels\nHeight                           : 304 pixels\nDisplay aspect ratio             : 2.35:1\nFrame rate                       : 25.000 fps\nColor space                      : YUV\nChroma subsampling               : 4:2:0\nBit depth                        : 8 bits\nScan type                        : Progressive\nCompression mode                 : Lossy\nBits/(Pixel*Frame)               : 0.339\nStream size                      : 1.94 GiB (82%)\nWriting library                  : XviD 1.1.2 (UTC 2006-11-01)\n\nAudio:\n\nFormat                           : AC-3\nFormat/Info                      : Audio Coding 3\nMode extension                   : CM (complete main)\nCodec ID                         : 2000\nDuration                         : 2h 29mn\nBit rate mode                    : Constant\nBit rate                         : 384 Kbps\nChannel(s)                       : 6 channels\nChannel positions                : Front: L C R, Side: L R, LFE\nSampling rate                    : 48.0 KHz\nBit depth                        : 16 bits\nCompression mode                 : Lossy\nStream size                      : 410 MiB (17%)\nAlignment                        : Aligned on interleaves\nInterleave, duration             : 32 ms (0.80 video frame)\nInterleave, preload duration     : 128 ms\n\n\n","torrent":{"xt":"urn:btih:82f8af28cbbbe42467a1f7e1cf9b8df61185120d","amp;dn":"Robin+Hood+201+DVDrip+English+Klam","amp;tr":["udp%3A%2F%2Ftracker.openbittorrent.com%3A80","udp%3A%2F%2Fopen.demonii.com%3A1337","udp%3A%2F%2Ftracker.coppersurfer.tk%3A6969","udp%3A%2F%2Fexodus.desync.com%3A6969"],"infoHash":"82f8af28cbbbe42467a1f7e1cf9b8df61185120d","infoHashBuffer":{"type":"Buffer","data":[130,248,175,40,203,187,228,36,103,161,247,225,207,155,141,246,17,133,18,13]},"announce":[],"urlList":[]}}